<?xml version="1.0" encoding="utf-8"?>
<!-- Generator: Adobe Illustrator 24.3.0, SVG Export Plug-In . SVG Version: 6.00 Build 0)  -->
<svg version="1.1" xmlns="http://www.w3.org/2000/svg" xmlns:xlink="http://www.w3.org/1999/xlink" x="0px" y="0px"
	 viewBox="0 0 800 800" style="enable-background:new 0 0 800 800;" xml:space="preserve">
<style type="text/css">
	.st0{fill:none;}
	.st1{fill:#444242;}
	.st2{fill:#0B526B;}
	.st3{fill:#DD851B;}
</style>
<g id="Background">
</g>
<g id="Objects">
	<rect x="74.87" y="526.28" class="st0" width="4.09" height="0"/>
	<g>
		<path d="M172.09,208.43h-39.03c-3.66,0-6.87-2.67-7.28-6.31c-0.49-4.3,2.88-7.96,7.09-7.96h39.03c3.66,0,6.87,2.67,7.28,6.31
			C179.67,204.77,176.3,208.43,172.09,208.43z M132.87,197.43c-2.32,0-4.18,2.06-3.82,4.45c0.28,1.92,2.01,3.28,3.95,3.28h38.97
			c1.94,0,3.67-1.37,3.95-3.28c0.35-2.39-1.5-4.45-3.83-4.45H132.87z"/>
	</g>
	<g>
		<path d="M178.26,190.89h-51.86v-18.79c-4.99-8.43-10.81-16.93-16.85-24.59c-7.65-9.7-11.69-21.35-11.69-33.69
			c0-30.12,24.5-54.62,54.62-54.62c30.12,0,54.62,24.5,54.62,54.62c0,12.35-4.04,24-11.69,33.7c-5.45,6.91-11.84,16.25-17.14,25.06
			V190.89z M129.67,187.63H175v-15.95l0.23-0.39c5.42-9.03,12-18.67,17.61-25.79c7.19-9.12,10.99-20.07,10.99-31.68
			c0-28.32-23.04-51.35-51.35-51.35c-28.32,0-51.36,23.04-51.36,51.35c0,11.6,3.8,22.55,10.99,31.67
			c6.23,7.9,12.22,16.66,17.33,25.34l0.23,0.38V187.63z"/>
	</g>
	<g>
		<polygon points="143.38,187.67 131.22,131.37 134.8,130.57 146.95,186.87 		"/>
	</g>
	<g>
		<rect x="135.78" y="158.61" transform="matrix(0.2094 -0.9778 0.9778 0.2094 -25.884 288.479)" width="59.35" height="3.28"/>
	</g>
	<g>
		<path d="M160.89,189.7l-3.37-0.72l0.02-0.08l12.47-58.1l3.37,0.72l-0.02,0.08L160.89,189.7z M157.72,188.85l3.05,0.65l12.42-57.87
			l-3.05-0.65L157.72,188.85z"/>
	</g>
	<g>
		<path d="M154.52,47.81c-0.77,0-1.4-0.63-1.4-1.4V22.14c0-0.77,0.63-1.4,1.4-1.4c0.77,0,1.4,0.63,1.4,1.4v24.27
			C155.92,47.18,155.3,47.81,154.52,47.81z"/>
	</g>
	<g>
		<path d="M191.71,56.9c-0.25,0-0.5-0.07-0.72-0.2c-0.66-0.4-0.87-1.26-0.47-1.92l12.58-20.75c0.4-0.66,1.26-0.87,1.92-0.47
			c0.66,0.4,0.87,1.26,0.47,1.92l-12.58,20.75C192.64,56.66,192.18,56.9,191.71,56.9z"/>
	</g>
	<g>
		<path d="M214.81,86.19c-0.5,0-0.99-0.27-1.24-0.75c-0.36-0.69-0.09-1.53,0.59-1.89l21.51-11.23c0.69-0.36,1.53-0.09,1.89,0.59
			c0.36,0.69,0.09,1.53-0.59,1.89l-21.51,11.23C215.25,86.14,215.03,86.19,214.81,86.19z"/>
	</g>
	<g>
		<path d="M246.02,120.77c-0.03,0-0.06,0-0.09,0l-24.22-1.55c-0.77-0.05-1.36-0.71-1.31-1.49c0.05-0.77,0.71-1.35,1.49-1.31
			l24.22,1.55c0.77,0.05,1.36,0.71,1.31,1.49C247.37,120.2,246.76,120.77,246.02,120.77z"/>
	</g>
	<g>
		<path d="M113.81,56.9c-0.47,0-0.94-0.24-1.2-0.67l-12.58-20.75c-0.4-0.66-0.19-1.52,0.47-1.92c0.66-0.4,1.52-0.19,1.92,0.47
			l12.58,20.75c0.4,0.66,0.19,1.52-0.47,1.92C114.31,56.83,114.06,56.9,113.81,56.9z"/>
	</g>
	<g>
		<path d="M90.71,86.19c-0.22,0-0.44-0.05-0.65-0.16L68.55,74.8c-0.69-0.36-0.95-1.2-0.59-1.89c0.36-0.69,1.2-0.95,1.89-0.59
			l21.51,11.23c0.69,0.36,0.95,1.2,0.59,1.89C91.7,85.91,91.21,86.19,90.71,86.19z"/>
	</g>
	<g>
		<path d="M59.49,120.77c-0.73,0-1.35-0.57-1.4-1.31c-0.05-0.77,0.54-1.44,1.31-1.49l24.22-1.55c0.78-0.05,1.44,0.54,1.49,1.31
			c0.05,0.77-0.54,1.44-1.31,1.49l-24.22,1.55C59.56,120.76,59.53,120.77,59.49,120.77z"/>
	</g>
	<g>
		<path d="M169.88,220.91h-35.05c-2.1,0-3.79-1.7-3.79-3.79l0,0c0-2.1,1.7-3.79,3.79-3.79h35.05c2.1,0,3.79,1.7,3.79,3.79l0,0
			C173.68,219.21,171.98,220.91,169.88,220.91z M163.84,226.54c7.03-1.03,12.36-7.07,12.36-14.26v-1.63h-47.69v1.63
			c0,7.2,5.35,13.24,12.39,14.27C142.25,231.75,162.49,231.75,163.84,226.54z"/>
	</g>
	<g>
		<line class="st1" x1="171.65" y1="131.61" x2="171.65" y2="103.96"/>
	</g>
	<g>
		<rect x="170.36" y="103.96" width="2.6" height="27.64"/>
	</g>
	<g>
		<line class="st1" x1="133.05" y1="131.76" x2="133.05" y2="104.28"/>
	</g>
	<g>
		<rect x="131.75" y="104.28" width="2.6" height="27.48"/>
	</g>
	<g>
		<line class="st1" x1="132.45" y1="104.86" x2="171.18" y2="104.76"/>
	</g>
	<g>
		<rect x="132.45" y="103.51" transform="matrix(1 -2.441399e-03 2.441399e-03 1 -0.2554 0.371)" width="38.72" height="2.6"/>
	</g>
	<g>
		<line class="st1" x1="128.05" y1="108.61" x2="152.92" y2="85.29"/>
	</g>
	<g>
		<rect x="123.43" y="95.65" transform="matrix(0.7294 -0.684 0.684 0.7294 -28.3093 122.3255)" width="34.09" height="2.6"/>
	</g>
	<g>
		<line class="st1" x1="176.78" y1="108.37" x2="152.23" y2="84.6"/>
	</g>
	<g>
		<rect x="163.21" y="79.4" transform="matrix(0.6957 -0.7183 0.7183 0.6957 -19.2505 147.5339)" width="2.6" height="34.17"/>
	</g>
	<g>
		<line class="st1" x1="144.61" y1="130.29" x2="144.61" y2="116.83"/>
	</g>
	<g>
		<rect x="141.36" y="116.83" width="6.49" height="13.46"/>
	</g>
	<g>
		<rect x="132.81" y="129.35" width="39.32" height="2.6"/>
	</g>
	<g>
		<path class="st2" d="M57.23,180.39v-8.68h19.12v8.68H71v33.98h5.35v8.64H57.23v-8.64h5.35v-33.98H57.23z"/>
		<path class="st2" d="M82.28,171.13h15.56c3.51,0,6.19,0.33,8.03,0.99c2.47,0.9,4.59,2.49,6.36,4.78c1.76,2.29,3.11,5.09,4.03,8.41
			c0.92,3.31,1.38,7.4,1.38,12.26c0,4.27-0.43,7.95-1.29,11.04c-1.06,3.77-2.56,6.83-4.52,9.17c-1.48,1.77-3.47,3.15-5.98,4.14
			c-1.88,0.73-4.39,1.1-7.54,1.1H82.28V171.13z M90.8,179.9v34.36h6.36c2.38,0,4.09-0.16,5.15-0.5c1.38-0.42,2.53-1.14,3.44-2.16
			c0.91-1.01,1.65-2.68,2.23-5.01c0.58-2.32,0.86-5.49,0.86-9.5c0-4.01-0.29-7.09-0.86-9.24c-0.58-2.15-1.38-3.82-2.42-5.03
			c-1.04-1.2-2.35-2.02-3.94-2.44c-1.19-0.33-3.52-0.5-6.99-0.5H90.8z"/>
	</g>
	<g>
		<path d="M57.54,272.58v-35.55h5.3v14.6h20.85v-14.6h5.3v35.55h-5.3v-16.76H62.84v16.76H57.54z"/>
		<path d="M96.5,255.27c0-6.06,1.83-10.72,5.5-13.98c3.67-3.26,8.24-4.89,13.71-4.89c3.54,0,6.76,0.73,9.67,2.18
			c2.91,1.45,5.22,3.57,6.92,6.34s2.55,6.07,2.55,9.91c0,5.27-1.65,9.56-4.94,12.88c-3.63,3.65-8.37,5.48-14.24,5.48
			c-5.92,0-10.67-1.88-14.28-5.63C98.13,264.17,96.5,260.07,96.5,255.27z M101.97,255.33c0,4.38,1.33,7.79,3.99,10.21
			c2.66,2.42,5.89,3.63,9.69,3.63c3.89,0,7.15-1.22,9.79-3.66s3.95-6.03,3.95-10.78c0-3.06-0.68-5.79-2.03-8.2
			c-1.05-1.84-2.62-3.32-4.72-4.43c-2.1-1.11-4.4-1.66-6.89-1.66c-4,0-7.3,1.21-9.89,3.64C103.26,246.5,101.97,250.25,101.97,255.33
			z"/>
		<path d="M167.78,237.03h5.3v20.54c0,3.44-0.46,6.27-1.38,8.48c-0.92,2.21-2.6,3.95-5.03,5.23c-2.43,1.28-5.53,1.92-9.28,1.92
			c-5.29,0-9.25-1.15-11.88-3.44s-3.95-6.35-3.95-12.17v-20.54h5.3v20.51c0,3.22,0.34,5.54,1.03,6.98c0.69,1.44,1.82,2.53,3.39,3.29
			c1.57,0.75,3.47,1.13,5.72,1.13c3.78,0,6.52-0.78,8.22-2.33c1.7-1.55,2.55-4.57,2.55-9.07V237.03z"/>
		<path d="M180.22,261.14l5-0.39c0.27,1.96,0.87,3.48,1.82,4.57c0.94,1.09,2.3,1.97,4.05,2.63c1.76,0.66,3.74,0.99,5.94,0.99
			c3.16,0,5.61-0.56,7.35-1.68c1.75-1.12,2.62-2.58,2.62-4.37c0-1.05-0.32-1.96-0.95-2.75c-0.63-0.78-1.59-1.42-2.87-1.92
			c-1.28-0.5-4.04-1.21-8.29-2.12c-3.78-0.82-6.47-1.64-8.07-2.46c-1.6-0.82-2.85-1.87-3.74-3.14c-0.89-1.27-1.33-2.7-1.33-4.3
			c0-2.88,1.28-5.23,3.84-7.06s6-2.74,10.34-2.74c2.98,0,5.59,0.43,7.82,1.29c2.23,0.86,3.97,2.09,5.2,3.69
			c1.23,1.6,1.9,3.48,1.98,5.65l-5.1,0.34c-0.27-2.31-1.22-4.03-2.85-5.14c-1.63-1.12-3.93-1.67-6.89-1.67c-3,0-5.29,0.49-6.87,1.47
			c-1.58,0.98-2.37,2.24-2.37,3.79c0,1.44,0.58,2.55,1.74,3.35c1.16,0.79,3.76,1.59,7.8,2.41c3.96,0.8,6.73,1.49,8.33,2.07
			c2.44,0.91,4.29,2.1,5.54,3.58c1.25,1.48,1.87,3.24,1.87,5.29c0,2.03-0.66,3.89-1.97,5.56c-1.31,1.67-3.1,2.94-5.35,3.81
			c-2.26,0.87-4.98,1.31-8.16,1.31c-4.96,0-8.91-1.08-11.86-3.25C181.86,267.77,180.33,264.84,180.22,261.14z"/>
		<path d="M219.48,272.58v-35.55h28.99v4.2h-23.68v10.86h22.18v4.19h-22.18v12.1h24.62v4.19H219.48z"/>
	</g>
	<g>
		<path class="st3" d="M186.7,225.2V170.7h22.35v9.22h-16.26V192h15.13v9.18h-15.13v14.83h16.84v9.18H186.7z"/>
	</g>
	<g>
		<path class="st3" d="M249.18,225.16h-7.33l-2.92-12.28h-13.35l-2.76,12.28h-7.15l13-54.06h7.13L249.18,225.16z M236.77,203.77
			l-4.6-20.06l-4.51,20.06H236.77z"/>
	</g>
</g>
</svg>
