<?xml version="1.0" encoding="utf-8"?>
<!-- Generator: Adobe Illustrator 24.3.0, SVG Export Plug-In . SVG Version: 6.00 Build 0)  -->
<svg version="1.1" id="Lag_1" xmlns="http://www.w3.org/2000/svg" xmlns:xlink="http://www.w3.org/1999/xlink" x="0px" y="0px"
	 viewBox="0 0 595.3 841.9" style="enable-background:new 0 0 595.3 841.9;" xml:space="preserve">
<style type="text/css">
	.st0{display:none;fill:none;stroke:#010202;stroke-width:4;stroke-miterlimit:10;}
	.st1{display:none;fill:none;stroke:#000000;stroke-miterlimit:10;}
	.st2{fill:#006B91;}
	.st3{display:none;fill:none;stroke:#F6E81D;stroke-width:4;stroke-miterlimit:10;}
	.st4{fill:#006B91;stroke:#2F7230;stroke-miterlimit:10;}
	.st5{fill:#E5910A;}
	.st6{fill:#E5910A;stroke:#2F7230;stroke-miterlimit:10;}
	.st7{fill:#4B990E;}
	.st8{fill:#4B990E;stroke:#2F7230;stroke-miterlimit:10;}
	.st9{fill:#AF0B0B;}
	.st10{fill:#AF0B0B;stroke:#2F7230;stroke-miterlimit:10;}
	.st11{fill:#00776E;}
	.st12{fill:#00776E;stroke:#2F7230;stroke-miterlimit:10;}
</style>
<rect x="98.5" y="206.2" class="st0" width="225.7" height="162.4"/>
<line class="st1" x1="276.3" y1="108.6" x2="276.6" y2="297.1"/>
<line class="st1" x1="80.7" y1="349.3" x2="230" y2="349.3"/>
<line class="st1" x1="55.5" y1="308.1" x2="43.6" y2="285"/>
<g>
	<path class="st2" d="M189.1,75.6l-32.7,0l0,39.9l36.4,0.1l0,12l-47.3-0.1l0.1-110.6l45.4,0.1l0,12l-34.5,0l0,34.9l32.7,0
		L189.1,75.6z"/>
</g>
<line class="st1" x1="255.6" y1="306.5" x2="260.1" y2="294.7"/>
<line class="st3" x1="33.5" y1="129.1" x2="36.2" y2="162.9"/>
<line class="st1" x1="-6.9" y1="240.9" x2="-6.6" y2="429.5"/>
<g>
	<path class="st2" d="M64.9,69.6L65.1,177l-10.8,0L54,69.7L64.9,69.6z"/>
</g>
<g>
	<path class="st2" d="M219.2,92.5l-8.2,34.7l-10.5,0l26.7-110.4l12.3,0l27.1,110.3l-10.9,0l-8.5-34.7L219.2,92.5z M245.1,81.3
		l-7.8-31.8c-1.8-7.2-2.9-13.8-4.1-20.1h-0.2c-1.2,6.5-2.4,13.3-4,20l-7.7,31.9L245.1,81.3z"/>
</g>
<g>
	<path class="st2" d="M82.5,19c5.4-1.3,11.8-2.3,18.9-2.3c12.8,0,21.9,4.6,27.9,13.5c6.1,8.9,9.7,21.4,9.8,39
		c0,17.8-3.4,32.3-9.9,42.3c-6.4,10.2-17,15.7-30.4,15.7c-6.3,0-11.6-0.5-16.1-1.3L82.5,19z M91.5,115.2c2.3,0.6,5.5,0.8,9,0.8
		c19,0,29.3-16.8,29.3-46.2c0.1-25.7-9.1-41.9-27.9-41.9c-4.6,0-8.1,0.7-10.4,1.5L91.5,115.2z"/>
</g>
<line class="st1" x1="-202.6" y1="481.6" x2="-53.2" y2="481.6"/>
<line class="st1" x1="-227.8" y1="440.4" x2="-239.6" y2="417.3"/>
<line class="st1" x1="-27.6" y1="438.9" x2="-23.1" y2="427"/>
<line class="st3" x1="-249.7" y1="261.4" x2="-247" y2="295.2"/>
<g>
	<g>
		<rect x="54" y="66.6" class="st2" width="11" height="0.9"/>
	</g>
	<g>
		<rect x="52" y="61.8" class="st2" width="14.7" height="0.9"/>
	</g>
	<g>
		<rect x="49.4" y="57.3" class="st2" width="19.7" height="0.9"/>
	</g>
	<g>
		<polygon class="st2" points="49.4,58.1 50.1,57.7 54.9,67 54.2,67.5 		"/>
	</g>
	<g>
		<polygon class="st2" points="64.3,67.1 68.4,57.7 69.2,58.1 65,67.4 		"/>
	</g>
	<g>
		<path class="st2" d="M59.1,58.2c-8.9,0-16.1-9.3-16.1-20.6s7.2-20.6,16.1-20.6c8.9,0,16.1,9.3,16.1,20.6S68,58.2,59.1,58.2z
			 M59.1,17.8c-8.4,0-15.3,8.9-15.3,19.8s6.8,19.8,15.3,19.8s15.3-8.9,15.3-19.8S67.5,17.8,59.1,17.8z"/>
	</g>
	<g>
		<polygon class="st2" points="45.1,47.6 45.8,47.3 50.1,57.7 49.3,58.1 		"/>
	</g>
	<g>
		<polygon class="st2" points="68.4,57.8 72.7,46.6 73.4,46.9 69.2,58.1 		"/>
	</g>
	<g>
		<path class="st4" d="M56.5,55.4"/>
	</g>
	<g>
		<path class="st2" d="M56.6,57.2c-0.7-3.8-0.9-7.5-0.6-11c-0.7-0.1-1.3-0.3-1.9-0.5c-0.9-0.3-2.5-1.1-2.5-2.1
			c0-0.6,0.4-1.2,1.3-1.8c1-0.6,2.6-1,3.4-0.4c0.5,0.4,0.7,1.1,0.8,1.9c0.2-0.5,0.4-0.9,0.8-1.2c0.8-0.9,2.8-2.3,3.9-1.6
			c0.4,0.3,0.6,0.7,0.7,1.3c0.1,0.9-0.1,2.2-0.9,3.1c-0.9,1.1-2.5,1.4-4.2,1.4c0.1,3,1.5,7,3.1,10.3l-0.7,0.4
			c-0.8-1.6-2.6-5.6-3.1-9.2c-0.1,2.9,0.1,6,0.7,9.1L56.6,57.2z M57.4,45.5c1.5,0.1,2.8-0.2,3.5-1.1c0.6-0.7,0.8-1.7,0.7-2.4
			c0-0.4-0.2-0.6-0.3-0.7c-0.5-0.4-2.1,0.5-2.9,1.4C57.8,43.4,57.5,44.3,57.4,45.5z M55.2,42c-0.5,0-1.3,0.2-1.9,0.6
			c-0.6,0.4-0.9,0.8-0.9,0.9c0,0.2,0.5,0.8,2,1.3c0.5,0.2,1.1,0.4,1.7,0.5c0.2-1.3,0.3-2.7-0.2-3.1C55.7,42.1,55.5,42,55.2,42z"/>
	</g>
</g>
<g>
	<path d="M88.3,128.2l0,20.5l21.1,0.1l0-20.5l5.7,0l-0.1,48.9l-5.7,0l0.1-22.9l-21.1-0.1l-0.1,22.9l-5.6,0l0.1-48.9L88.3,128.2z"/>
	<path d="M161.9,152.4c0,16.8-9.2,25.7-20.3,25.7c-11.5,0-19.5-10.1-19.5-24.9c0-15.5,8.7-25.7,20.3-25.6
		C154.3,127.6,161.9,137.9,161.9,152.4z M128.1,153.1c0,10.5,5,19.8,13.8,19.9c8.9,0,14-9.2,14-20.3c0-9.7-4.5-19.9-13.8-19.9
		C132.8,132.7,128.1,142.3,128.1,153.1z"/>
	<path d="M174.9,128.5l-0.1,29c0,11,4.3,15.6,10.1,15.6c6.5,0,10.6-4.8,10.6-15.6l0.1-29l5.7,0l-0.1,28.5c0,15-7.1,21.2-16.5,21.1
		c-8.9,0-15.6-5.8-15.6-21l0.1-28.8L174.9,128.5z"/>
	<path d="M210.2,169.8c2.5,1.8,6.2,3.2,10.1,3.2c5.7,0,9.1-3.4,9.1-8.3c0-4.6-2.3-7.2-8.2-9.8c-7.1-2.8-11.5-7-11.5-13.9
		c0-7.6,5.7-13.3,14.1-13.2c4.5,0,7.7,1.2,9.6,2.4l-1.6,5.2c-1.4-0.9-4.3-2.3-8.3-2.3c-5.9,0-8.2,4-8.2,7.3c0,4.6,2.6,6.8,8.6,9.5
		c7.4,3.2,11.1,7.2,11.1,14.4c0,7.6-5,14.1-15.3,14c-4.2,0-8.8-1.4-11.1-3.2L210.2,169.8z"/>
	<path d="M265.4,154.7l-16.9-0.1l0,17.6l18.9,0.1l0,5.3l-24.5-0.1l0.1-48.9l23.5,0.1l0,5.3l-17.9-0.1l0,15.5l16.9,0.1L265.4,154.7z"
		/>
</g>
<g>
	<path class="st5" d="M182.3,277.7l-32.7,0l0,39.9l36.4,0.1l0,12l-47.3-0.1l0.1-110.6l45.4,0.1l0,12l-34.5,0l0,34.9l32.7,0
		L182.3,277.7z"/>
</g>
<g>
	<path class="st5" d="M58,271.7L58.2,379l-10.8,0l-0.2-107.3L58,271.7z"/>
</g>
<g>
	<path class="st5" d="M212.3,294.6l-8.2,34.7l-10.5,0l26.7-110.4l12.3,0l27.1,110.3l-10.9,0l-8.5-34.7L212.3,294.6z M238.2,283.4
		l-7.8-31.8c-1.8-7.2-2.9-13.8-4.1-20.1h-0.2c-1.2,6.5-2.4,13.3-4,20l-7.7,31.9L238.2,283.4z"/>
</g>
<g>
	<path class="st5" d="M75.6,221.1c5.4-1.3,11.8-2.3,18.9-2.3c12.8,0,21.9,4.6,27.9,13.5c6.1,8.9,9.7,21.4,9.8,39
		c0,17.8-3.4,32.3-9.9,42.3c-6.4,10.2-17,15.7-30.4,15.7c-6.3,0-11.6-0.5-16.1-1.3L75.6,221.1z M84.6,317.2c2.3,0.6,5.5,0.8,9,0.8
		c19,0,29.3-16.8,29.3-46.2c0.1-25.7-9.1-41.9-27.9-41.9c-4.6,0-8.1,0.7-10.4,1.5L84.6,317.2z"/>
</g>
<g>
	<g>
		<rect x="47.1" y="268.7" class="st5" width="11" height="0.9"/>
	</g>
	<g>
		<rect x="45.1" y="263.8" class="st5" width="14.7" height="0.9"/>
	</g>
	<g>
		<rect x="42.5" y="259.3" class="st5" width="19.7" height="0.9"/>
	</g>
	<g>
		<polygon class="st5" points="42.5,260.2 43.2,259.7 48,269.1 47.3,269.5 		"/>
	</g>
	<g>
		<polygon class="st5" points="57.4,269.1 61.5,259.8 62.3,260.2 58.1,269.5 		"/>
	</g>
	<g>
		<path class="st5" d="M52.2,260.2c-8.9,0-16.1-9.3-16.1-20.6c0-11.4,7.2-20.6,16.1-20.6s16.1,9.3,16.1,20.6S61.1,260.2,52.2,260.2z
			 M52.2,219.9c-8.4,0-15.3,8.9-15.3,19.8c0,10.9,6.8,19.8,15.3,19.8s15.3-8.9,15.3-19.8C67.5,228.7,60.6,219.9,52.2,219.9z"/>
	</g>
	<g>
		<polygon class="st5" points="38.2,249.7 39,249.3 43.2,259.8 42.5,260.1 		"/>
	</g>
	<g>
		<polygon class="st5" points="61.5,259.8 65.8,248.6 66.6,249 62.3,260.2 		"/>
	</g>
	<g>
		<path class="st6" d="M49.6,257.5"/>
	</g>
	<g>
		<path class="st5" d="M49.7,259.2c-0.7-3.8-0.9-7.5-0.6-11c-0.7-0.1-1.3-0.3-1.9-0.5c-0.9-0.3-2.5-1.1-2.5-2.1
			c0-0.6,0.4-1.2,1.3-1.8c1-0.6,2.6-1,3.4-0.4c0.5,0.4,0.7,1.1,0.8,1.9c0.2-0.5,0.4-0.9,0.8-1.2c0.8-0.9,2.8-2.3,3.9-1.6
			c0.4,0.3,0.6,0.7,0.7,1.3c0.1,0.9-0.1,2.2-0.9,3.1c-0.9,1.1-2.5,1.4-4.2,1.4c0.1,3,1.5,7,3.1,10.3l-0.7,0.4
			c-0.8-1.6-2.6-5.6-3.1-9.2c-0.1,2.9,0.1,6,0.7,9.1L49.7,259.2z M50.5,247.6c1.5,0.1,2.8-0.2,3.5-1.1c0.6-0.7,0.8-1.7,0.7-2.4
			c0-0.4-0.2-0.6-0.3-0.7c-0.5-0.4-2.1,0.5-2.9,1.4C50.9,245.4,50.6,246.4,50.5,247.6z M48.3,244.1c-0.5,0-1.3,0.2-1.9,0.6
			c-0.6,0.4-0.9,0.8-0.9,0.9c0,0.2,0.5,0.8,2,1.3c0.5,0.2,1.1,0.4,1.7,0.5c0.2-1.3,0.3-2.7-0.2-3.1
			C48.8,244.1,48.6,244.1,48.3,244.1z"/>
	</g>
</g>
<g>
	<path d="M81.4,330.3l0,20.5l21.1,0.1l0-20.5l5.7,0l-0.1,48.9l-5.7,0l0.1-22.9l-21.1-0.1l-0.1,22.9l-5.6,0l0.1-48.9L81.4,330.3z"/>
	<path d="M155,354.4c0,16.8-9.2,25.7-20.3,25.7c-11.5,0-19.5-10.1-19.5-24.9c0-15.5,8.7-25.7,20.3-25.6
		C147.4,329.7,155.1,339.9,155,354.4z M121.2,355.2c0,10.5,5,19.8,13.8,19.9c8.9,0,14-9.2,14-20.3c0-9.7-4.5-19.9-13.8-19.9
		C125.9,334.8,121.3,344.4,121.2,355.2z"/>
	<path d="M168,330.5l-0.1,29c0,11,4.3,15.6,10.1,15.6c6.5,0,10.6-4.8,10.6-15.6l0.1-29l5.7,0l-0.1,28.5c0,15-7.1,21.2-16.5,21.1
		c-8.9,0-15.6-5.8-15.6-21l0.1-28.8L168,330.5z"/>
	<path d="M203.3,371.9c2.5,1.8,6.2,3.2,10.1,3.2c5.7,0,9.1-3.4,9.1-8.3c0-4.6-2.3-7.2-8.2-9.8c-7.1-2.8-11.5-7-11.5-13.9
		c0-7.6,5.7-13.3,14.1-13.2c4.5,0,7.7,1.2,9.6,2.4l-1.6,5.2c-1.4-0.9-4.3-2.3-8.3-2.3c-5.9,0-8.2,4-8.2,7.3c0,4.6,2.6,6.8,8.6,9.5
		c7.4,3.2,11.1,7.2,11.1,14.4c0,7.6-5,14.1-15.3,14c-4.2,0-8.8-1.4-11.1-3.2L203.3,371.9z"/>
	<path d="M258.5,356.8l-16.9-0.1l0,17.6l18.9,0.1l0,5.3l-24.5-0.1l0.1-48.9l23.5,0.1l0,5.3l-17.9-0.1l0,15.5l16.9,0.1L258.5,356.8z"
		/>
</g>
<g>
	<path class="st5" d="M181.6,467l-32.7,0l0,39.9l36.4,0.1l0,12l-47.3-0.1l0.1-110.6l45.4,0.1l0,12l-34.5,0l0,34.9l32.7,0L181.6,467z
		"/>
</g>
<g>
	<path class="st2" d="M57.3,461l0.2,107.3l-10.8,0L46.5,461L57.3,461z"/>
</g>
<g>
	<path class="st5" d="M211.7,483.9l-8.2,34.7l-10.5,0l26.7-110.4l12.3,0L259,518.5l-10.9,0l-8.5-34.7L211.7,483.9z M237.5,472.7
		l-7.8-31.8c-1.8-7.2-2.9-13.8-4.1-20.1h-0.2c-1.2,6.5-2.4,13.3-4,20l-7.7,31.9L237.5,472.7z"/>
</g>
<g>
	<path class="st2" d="M75,410.4c5.4-1.3,11.8-2.3,18.9-2.3c12.8,0,21.9,4.6,27.9,13.5c6.1,8.9,9.7,21.4,9.8,39
		c0,17.8-3.4,32.3-9.9,42.3c-6.4,10.2-17,15.7-30.4,15.7c-6.3,0-11.6-0.5-16.1-1.3L75,410.4z M84,506.5c2.3,0.6,5.5,0.8,9,0.8
		c19,0,29.3-16.8,29.3-46.2c0.1-25.7-9.1-41.9-27.9-41.9c-4.6,0-8.1,0.7-10.4,1.5L84,506.5z"/>
</g>
<g>
	<g>
		<rect x="46.5" y="458" class="st2" width="11" height="0.9"/>
	</g>
	<g>
		<rect x="44.5" y="453.1" class="st2" width="14.7" height="0.9"/>
	</g>
	<g>
		<rect x="41.9" y="448.6" class="st2" width="19.7" height="0.9"/>
	</g>
	<g>
		<polygon class="st2" points="41.8,449.5 42.6,449 47.4,458.4 46.7,458.8 		"/>
	</g>
	<g>
		<polygon class="st2" points="56.8,458.4 60.9,449.1 61.6,449.5 57.5,458.8 		"/>
	</g>
	<g>
		<path class="st2" d="M51.6,449.5c-8.9,0-16.1-9.3-16.1-20.6s7.2-20.6,16.1-20.6c8.9,0,16.1,9.3,16.1,20.6
			C67.7,440.3,60.4,449.5,51.6,449.5z M51.6,409.2c-8.4,0-15.3,8.9-15.3,19.8s6.8,19.8,15.3,19.8s15.3-8.9,15.3-19.8
			S60,409.2,51.6,409.2z"/>
	</g>
	<g>
		<polygon class="st2" points="37.6,439 38.3,438.6 42.6,449.1 41.8,449.4 		"/>
	</g>
	<g>
		<polygon class="st2" points="60.9,449.1 65.2,437.9 65.9,438.3 61.6,449.5 		"/>
	</g>
	<g>
		<path class="st4" d="M49,446.8"/>
	</g>
	<g>
		<path class="st2" d="M49.1,448.5c-0.7-3.8-0.9-7.5-0.6-11c-0.7-0.1-1.3-0.3-1.9-0.5c-0.9-0.3-2.5-1.1-2.5-2.1
			c0-0.6,0.4-1.2,1.3-1.8c1-0.6,2.6-1,3.4-0.4c0.5,0.4,0.7,1.1,0.8,1.9c0.2-0.5,0.4-0.9,0.8-1.2c0.8-0.9,2.8-2.3,3.9-1.6
			c0.4,0.3,0.6,0.7,0.7,1.3c0.1,0.9-0.1,2.2-0.9,3.1c-0.9,1.1-2.5,1.4-4.2,1.4c0.1,3,1.5,7,3.1,10.3l-0.7,0.4
			c-0.8-1.6-2.6-5.6-3.1-9.2c-0.1,2.9,0.1,6,0.7,9.1L49.1,448.5z M49.9,436.9c1.5,0.1,2.8-0.2,3.5-1.1c0.6-0.7,0.8-1.7,0.7-2.4
			c0-0.4-0.2-0.6-0.3-0.7c-0.5-0.4-2.1,0.5-2.9,1.4C50.3,434.7,50,435.7,49.9,436.9z M47.7,433.4c-0.5,0-1.3,0.2-1.9,0.6
			c-0.6,0.4-0.9,0.8-0.9,0.9c0,0.2,0.5,0.8,2,1.3c0.5,0.2,1.1,0.4,1.7,0.5c0.2-1.3,0.3-2.7-0.2-3.1
			C48.2,433.4,47.9,433.4,47.7,433.4z"/>
	</g>
</g>
<g>
	<path d="M80.8,519.6l0,20.5l21.1,0.1l0-20.5l5.7,0l-0.1,48.9l-5.7,0l0.1-22.9l-21.1-0.1l-0.1,22.9l-5.6,0l0.1-48.9L80.8,519.6z"/>
	<path d="M154.4,543.7c0,16.8-9.2,25.7-20.3,25.7c-11.5,0-19.5-10.1-19.5-24.9c0-15.5,8.7-25.7,20.3-25.6
		C146.8,519,154.4,529.2,154.4,543.7z M120.6,544.4c0,10.5,5,19.8,13.8,19.9c8.9,0,14-9.2,14-20.3c0-9.7-4.5-19.9-13.8-19.9
		C125.3,524.1,120.6,533.7,120.6,544.4z"/>
	<path d="M167.4,519.8l-0.1,29c0,11,4.3,15.6,10.1,15.6c6.5,0,10.6-4.8,10.6-15.6l0.1-29l5.7,0l-0.1,28.5c0,15-7.1,21.2-16.5,21.1
		c-8.9,0-15.6-5.8-15.6-21l0.1-28.8L167.4,519.8z"/>
	<path d="M202.7,561.2c2.5,1.8,6.2,3.2,10.1,3.2c5.7,0,9.1-3.4,9.1-8.3c0-4.6-2.3-7.2-8.2-9.8c-7.1-2.8-11.5-7-11.5-13.9
		c0-7.6,5.7-13.3,14.1-13.2c4.5,0,7.7,1.2,9.6,2.4l-1.6,5.2c-1.4-0.9-4.3-2.3-8.3-2.3c-5.9,0-8.2,4-8.2,7.3c0,4.6,2.6,6.8,8.6,9.5
		c7.4,3.2,11.1,7.2,11.1,14.4c0,7.6-5,14.1-15.3,14c-4.2,0-8.8-1.4-11.1-3.2L202.7,561.2z"/>
	<path d="M257.9,546.1L241,546l0,17.6l18.9,0.1l0,5.3l-24.5-0.1l0.1-48.9l23.5,0.1l0,5.3l-17.9-0.1l0,15.5l16.9,0.1L257.9,546.1z"/>
</g>
<g>
	<path class="st2" d="M473.2,86.3l-39.6-0.1l-0.1,45.5l44.2,0.1l0,13.7l-57.3-0.1l0.2-126.2l55.1,0.1l0,13.7l-41.9-0.1l0,39.9
		l39.6,0.1L473.2,86.3z"/>
</g>
<g>
	<path class="st5" d="M322.4,79.4l0.3,122.5l-13.1,0l-0.3-122.5L322.4,79.4z"/>
</g>
<g>
	<path class="st2" d="M509.7,105.5l-9.9,39.6l-12.8,0l32.4-125.9l14.9,0L567.1,145l-13.2,0l-10.3-39.6L509.7,105.5z M541,92.8
		l-9.4-36.2c-2.1-8.2-3.6-15.7-5-23h-0.3c-1.4,7.5-3,15.1-4.8,22.8l-9.3,36.4L541,92.8z"/>
</g>
<g>
	<path class="st5" d="M343.8,21.6c6.6-1.5,14.4-2.6,22.9-2.6c15.5,0,26.5,5.3,33.9,15.4c7.5,10.1,11.8,24.5,11.8,44.6
		c0,20.3-4.2,36.8-11.9,48.3c-7.8,11.6-20.7,17.9-36.9,17.9c-7.7,0-14.1-0.5-19.6-1.5L343.8,21.6z M354.7,131.4
		c2.7,0.7,6.7,0.9,10.9,0.9c23,0,35.5-19.2,35.5-52.7c0.1-29.3-11.1-47.9-33.9-47.8c-5.6,0-9.8,0.8-12.6,1.7L354.7,131.4z"/>
</g>
<g>
	<g>
		<rect x="309.3" y="75.9" class="st5" width="13.4" height="1"/>
	</g>
	<g>
		<rect x="306.8" y="70.4" class="st5" width="17.9" height="1"/>
	</g>
	<g>
		<rect x="303.6" y="65.3" class="st5" width="23.9" height="1"/>
	</g>
	<g>
		<rect x="306.5" y="65.3" transform="matrix(0.877 -0.4805 0.4805 0.877 3.4785 156.2853)" class="st5" width="1" height="12.2"/>
	</g>
	<g>
		
			<rect x="318.8" y="70.9" transform="matrix(0.4268 -0.9044 0.9044 0.4268 121.5598 334.5376)" class="st5" width="11.8" height="1"/>
	</g>
	<g>
		<path class="st5" d="M315.4,66.3c-10.8,0-19.5-10.6-19.5-23.5s8.8-23.5,19.5-23.5c10.8,0,19.5,10.6,19.5,23.5
			S326.2,66.3,315.4,66.3z M315.4,20.3c-10.2,0-18.5,10.1-18.5,22.5s8.3,22.5,18.5,22.5c10.2,0,18.5-10.1,18.5-22.5
			S325.6,20.3,315.4,20.3z"/>
	</g>
	<g>
		<rect x="301" y="53.5" transform="matrix(0.9177 -0.3973 0.3973 0.9177 0.9551 124.717)" class="st5" width="1" height="13"/>
	</g>
	<g>
		
			<rect x="322.9" y="59.2" transform="matrix(0.3768 -0.9263 0.9263 0.3768 150.2383 342.6679)" class="st5" width="13.8" height="1"/>
	</g>
	<g>
		<path class="st6" d="M312.3,63.2"/>
	</g>
	<g>
		<path class="st5" d="M312.4,65.2c-0.9-4.3-1.1-8.5-0.7-12.5c-0.8-0.1-1.6-0.3-2.3-0.6c-1.1-0.4-3-1.2-3.1-2.4c0-0.7,0.5-1.4,1.6-2
			c1.3-0.7,3.1-1.2,4.2-0.5c0.7,0.4,0.9,1.2,0.9,2.1c0.2-0.5,0.5-1,0.9-1.4c1-1,3.4-2.7,4.8-1.8c0.4,0.3,0.7,0.8,0.8,1.5
			c0.1,1-0.1,2.5-1.1,3.6c-1.1,1.2-3,1.6-5.1,1.6c0.1,3.4,1.8,7.9,3.8,11.8l-0.9,0.5c-1-1.8-3.2-6.3-3.8-10.5
			c-0.2,3.3,0.1,6.8,0.8,10.4L312.4,65.2z M313.4,51.9c1.8,0.1,3.4-0.3,4.3-1.2c0.7-0.8,0.9-2,0.8-2.8c-0.1-0.4-0.2-0.7-0.4-0.8
			c-0.6-0.4-2.5,0.6-3.5,1.6C313.9,49.5,313.5,50.6,313.4,51.9z M310.7,47.9c-0.7,0-1.5,0.3-2.3,0.7c-0.8,0.4-1.1,0.9-1.1,1.1
			c0,0.2,0.6,0.9,2.4,1.5c0.7,0.2,1.4,0.4,2.1,0.5c0.2-1.5,0.4-3.1-0.3-3.6C311.3,48,311,47.9,310.7,47.9z"/>
	</g>
</g>
<g>
	<path d="M350.8,146.3l-0.1,23.4l25.5,0.1l0.1-23.4l6.9,0l-0.1,55.8l-6.9,0l0.1-26.2l-25.5-0.1l-0.1,26.2l-6.8,0l0.1-55.8
		L350.8,146.3z"/>
	<path d="M440.2,173.8c0,19.2-11.1,29.4-24.6,29.3c-14,0-23.7-11.5-23.7-28.4c0.1-17.7,10.5-29.3,24.6-29.3
		C430.9,145.6,440.2,157.3,440.2,173.8z M399.2,174.6c0,11.9,6,22.6,16.8,22.7c10.8,0,17-10.5,17-23.1c0-11.1-5.4-22.7-16.8-22.7
		C404.9,151.4,399.2,162.4,399.2,174.6z"/>
	<path d="M455.9,146.5l-0.1,33c0,12.5,5.2,17.8,12.3,17.8c7.8,0,12.9-5.4,12.9-17.8l0.1-33l6.9,0l-0.1,32.6c0,17.1-8.6,24.2-20,24.1
		c-10.8,0-19-6.6-18.9-23.9l0.1-32.9L455.9,146.5z"/>
	<path d="M498.7,193.7c3,2,7.5,3.7,12.2,3.7c7,0,11.1-3.9,11.1-9.5c0-5.2-2.8-8.2-9.9-11.1c-8.6-3.3-13.9-8-13.9-15.9
		c0-8.7,6.9-15.1,17.1-15.1c5.4,0,9.3,1.4,11.7,2.8l-1.9,5.9c-1.7-1-5.2-2.7-10-2.7c-7.2,0-10,4.5-10,8.3c0,5.2,3.2,7.8,10.5,10.8
		c8.9,3.7,13.5,8.2,13.4,16.4c0,8.6-6.1,16-18.5,16c-5.1,0-10.6-1.6-13.5-3.6L498.7,193.7z"/>
	<path d="M565.7,176.5l-20.5-0.1l-0.1,20.1l22.9,0.1l0,6l-29.7-0.1l0.1-55.8l28.5,0.1l0,6l-21.7-0.1l0,17.6l20.5,0.1V176.5z"/>
</g>
<g>
	<path class="st7" d="M472.8,298.4l-32.7,0l0,39.9l36.4,0.1l0,12l-47.3-0.1l0.1-110.6l45.4,0.1l0,12l-34.5,0l0,34.9l32.7,0
		L472.8,298.4z"/>
</g>
<g>
	<path class="st7" d="M348.6,292.5l0.2,107.3l-10.8,0l-0.2-107.3L348.6,292.5z"/>
</g>
<g>
	<path class="st7" d="M502.9,315.3l-8.2,34.7l-10.5,0l26.7-110.4l12.3,0L550.2,350l-10.9,0l-8.5-34.7L502.9,315.3z M528.8,304.1
		l-7.8-31.8c-1.8-7.2-2.9-13.8-4.1-20.1h-0.2c-1.2,6.5-2.4,13.3-4,20l-7.7,31.9L528.8,304.1z"/>
</g>
<g>
	<path class="st7" d="M366.2,241.8c5.4-1.3,11.8-2.3,18.9-2.3c12.8,0,21.9,4.6,27.9,13.5c6.1,8.9,9.7,21.4,9.8,39
		c0,17.8-3.4,32.3-9.9,42.3c-6.4,10.2-17,15.7-30.4,15.7c-6.3,0-11.6-0.5-16.1-1.3L366.2,241.8z M375.2,338c2.3,0.6,5.5,0.8,9,0.8
		c19,0,29.3-16.8,29.3-46.2c0.1-25.7-9.1-41.9-27.9-41.9c-4.6,0-8.1,0.7-10.4,1.5L375.2,338z"/>
</g>
<g>
	<g>
		<rect x="337.7" y="289.4" class="st7" width="11" height="0.9"/>
	</g>
	<g>
		<rect x="335.7" y="284.6" class="st7" width="14.7" height="0.9"/>
	</g>
	<g>
		<rect x="333.1" y="280.1" class="st7" width="19.7" height="0.9"/>
	</g>
	<g>
		<polygon class="st7" points="333.1,280.9 333.8,280.5 338.6,289.9 337.9,290.3 		"/>
	</g>
	<g>
		<polygon class="st7" points="348,289.9 352.1,280.6 352.9,280.9 348.7,290.3 		"/>
	</g>
	<g>
		<path class="st7" d="M342.8,281c-8.9,0-16.1-9.3-16.1-20.6c0-11.4,7.2-20.6,16.1-20.6c8.9,0,16.1,9.3,16.1,20.6
			C358.9,271.7,351.7,281,342.8,281z M342.8,240.6c-8.4,0-15.3,8.9-15.3,19.8c0,10.9,6.8,19.8,15.3,19.8s15.3-8.9,15.3-19.8
			C358.1,249.5,351.2,240.6,342.8,240.6z"/>
	</g>
	<g>
		<polygon class="st7" points="328.8,270.4 329.5,270.1 333.8,280.5 333,280.9 		"/>
	</g>
	<g>
		<polygon class="st7" points="352.1,280.6 356.4,269.4 357.2,269.7 352.9,280.9 		"/>
	</g>
	<g>
		<path class="st8" d="M340.2,278.2"/>
	</g>
	<g>
		<path class="st7" d="M340.3,280c-0.7-3.8-0.9-7.5-0.6-11c-0.7-0.1-1.3-0.3-1.9-0.5c-0.9-0.3-2.5-1.1-2.5-2.1
			c0-0.6,0.4-1.2,1.3-1.8c1-0.6,2.6-1,3.4-0.4c0.5,0.4,0.7,1.1,0.8,1.9c0.2-0.5,0.4-0.9,0.8-1.2c0.8-0.9,2.8-2.3,3.9-1.6
			c0.4,0.3,0.6,0.7,0.7,1.3c0.1,0.9-0.1,2.2-0.9,3.1c-0.9,1.1-2.5,1.4-4.2,1.4c0.1,3,1.5,7,3.1,10.3l-0.7,0.4
			c-0.8-1.6-2.6-5.6-3.1-9.2c-0.1,2.9,0.1,6,0.7,9.1L340.3,280z M341.1,268.3c1.5,0.1,2.8-0.2,3.5-1.1c0.6-0.7,0.8-1.7,0.7-2.4
			c0-0.4-0.2-0.6-0.3-0.7c-0.5-0.4-2.1,0.5-2.9,1.4C341.5,266.2,341.2,267.2,341.1,268.3z M338.9,264.8c-0.5,0-1.3,0.2-1.9,0.6
			c-0.6,0.4-0.9,0.8-0.9,0.9c0,0.2,0.5,0.8,2,1.3c0.5,0.2,1.1,0.4,1.7,0.5c0.2-1.3,0.3-2.7-0.2-3.1
			C339.4,264.9,339.2,264.8,338.9,264.8z"/>
	</g>
</g>
<g>
	<path d="M372,351l0,20.5l21.1,0.1l0-20.5l5.7,0l-0.1,48.9l-5.7,0l0.1-22.9l-21.1-0.1l-0.1,22.9l-5.6,0l0.1-48.9L372,351z"/>
	<path d="M445.6,375.2c0,16.8-9.2,25.7-20.3,25.7c-11.5,0-19.5-10.1-19.5-24.9c0-15.5,8.7-25.7,20.3-25.6
		C438,350.4,445.7,360.7,445.6,375.2z M411.8,375.9c0,10.5,5,19.8,13.8,19.9c8.9,0,14-9.2,14-20.3c0-9.7-4.5-19.9-13.8-19.9
		C416.5,355.5,411.9,365.2,411.8,375.9z"/>
	<path d="M458.6,351.3l-0.1,29c0,11,4.3,15.6,10.1,15.6c6.5,0,10.6-4.8,10.6-15.6l0.1-29l5.7,0l-0.1,28.5c0,15-7.1,21.2-16.5,21.1
		c-8.9,0-15.6-5.8-15.6-21l0.1-28.8L458.6,351.3z"/>
	<path d="M493.9,392.6c2.5,1.8,6.2,3.2,10.1,3.2c5.7,0,9.1-3.4,9.1-8.3c0-4.6-2.3-7.2-8.2-9.8c-7.1-2.8-11.5-7-11.5-13.9
		c0-7.6,5.7-13.3,14.1-13.2c4.5,0,7.7,1.2,9.6,2.4l-1.6,5.2c-1.4-0.9-4.3-2.3-8.3-2.3c-5.9,0-8.2,4-8.2,7.3c0,4.6,2.6,6.8,8.6,9.5
		c7.4,3.2,11.1,7.2,11.1,14.4c0,7.6-5,14.1-15.3,14c-4.2,0-8.8-1.4-11.1-3.2L493.9,392.6z"/>
	<path d="M549.1,377.5l-16.9-0.1l0,17.6l18.9,0.1l0,5.3l-24.5-0.1l0.1-48.9l23.5,0.1l0,5.3l-17.9-0.1l0,15.5l16.9,0.1V377.5z"/>
</g>
<g>
	<path class="st9" d="M479,496.8l-32.7,0l0,39.9l36.4,0.1l0,12l-47.3-0.1l0.1-110.6l45.4,0.1l0,12l-34.5,0l0,34.9l32.7,0L479,496.8z
		"/>
</g>
<g>
	<path class="st9" d="M354.7,490.8l0.2,107.3l-10.8,0l-0.2-107.3L354.7,490.8z"/>
</g>
<g>
	<path class="st9" d="M509,513.7l-8.2,34.7l-10.5,0L517,438.1l12.3,0l27.1,110.3l-10.9,0l-8.5-34.7L509,513.7z M534.9,502.5
		l-7.8-31.8c-1.8-7.2-2.9-13.8-4.1-20.1h-0.2c-1.2,6.5-2.4,13.3-4,20l-7.7,31.9L534.9,502.5z"/>
</g>
<g>
	<path class="st9" d="M372.3,440.2c5.4-1.3,11.8-2.3,18.9-2.3c12.8,0,21.9,4.6,27.9,13.5c6.1,8.9,9.7,21.4,9.8,39
		c0,17.8-3.4,32.3-9.9,42.3c-6.4,10.2-17,15.7-30.4,15.7c-6.3,0-11.6-0.5-16.1-1.3L372.3,440.2z M381.3,536.4c2.3,0.6,5.5,0.8,9,0.8
		c19,0,29.3-16.8,29.3-46.2c0.1-25.7-9.1-41.9-27.9-41.9c-4.6,0-8.1,0.7-10.4,1.5L381.3,536.4z"/>
</g>
<g>
	<g>
		<rect x="343.9" y="487.8" class="st9" width="11" height="0.9"/>
	</g>
	<g>
		<rect x="341.8" y="483" class="st9" width="14.7" height="0.9"/>
	</g>
	<g>
		<rect x="339.2" y="478.5" class="st9" width="19.7" height="0.9"/>
	</g>
	<g>
		<polygon class="st9" points="339.2,479.3 339.9,478.9 344.7,488.2 344,488.7 		"/>
	</g>
	<g>
		<polygon class="st9" points="354.1,488.3 358.2,478.9 359,479.3 354.9,488.6 		"/>
	</g>
	<g>
		<path class="st9" d="M348.9,479.4c-8.9,0-16.1-9.3-16.1-20.6s7.2-20.6,16.1-20.6c8.9,0,16.1,9.3,16.1,20.6
			C365,470.1,357.8,479.4,348.9,479.4z M348.9,439c-8.4,0-15.3,8.9-15.3,19.8c0,10.9,6.8,19.8,15.3,19.8s15.3-8.9,15.3-19.8
			C364.2,447.9,357.3,439,348.9,439z"/>
	</g>
	<g>
		<polygon class="st9" points="334.9,468.8 335.7,468.5 339.9,478.9 339.2,479.3 		"/>
	</g>
	<g>
		<polygon class="st9" points="358.2,479 362.5,467.8 363.3,468.1 359,479.3 		"/>
	</g>
	<g>
		<path class="st10" d="M346.4,476.6"/>
	</g>
	<g>
		<path class="st9" d="M346.4,478.4c-0.7-3.8-0.9-7.5-0.6-11c-0.7-0.1-1.3-0.3-1.9-0.5c-0.9-0.3-2.5-1.1-2.5-2.1
			c0-0.6,0.4-1.2,1.3-1.8c1-0.6,2.6-1,3.4-0.4c0.5,0.4,0.7,1.1,0.8,1.9c0.2-0.5,0.4-0.9,0.8-1.2c0.8-0.9,2.8-2.3,3.9-1.6
			c0.4,0.3,0.6,0.7,0.7,1.3c0.1,0.9-0.1,2.2-0.9,3.1c-0.9,1.1-2.5,1.4-4.2,1.4c0.1,3,1.5,7,3.1,10.3l-0.7,0.4
			c-0.8-1.6-2.6-5.6-3.1-9.2c-0.1,2.9,0.1,6,0.7,9.1L346.4,478.4z M347.3,466.7c1.5,0.1,2.8-0.2,3.5-1.1c0.6-0.7,0.8-1.7,0.7-2.4
			c0-0.4-0.2-0.6-0.3-0.7c-0.5-0.4-2.1,0.5-2.9,1.4C347.7,464.6,347.3,465.6,347.3,466.7z M345,463.2c-0.5,0-1.3,0.2-1.9,0.6
			c-0.6,0.4-0.9,0.8-0.9,0.9c0,0.2,0.5,0.8,2,1.3c0.5,0.2,1.1,0.4,1.7,0.5c0.2-1.3,0.3-2.7-0.2-3.1
			C345.5,463.3,345.3,463.2,345,463.2z"/>
	</g>
</g>
<g>
	<path d="M378.1,549.4l0,20.5l21.1,0.1l0-20.5l5.7,0l-0.1,48.9l-5.7,0l0.1-22.9l-21.1-0.1l-0.1,22.9l-5.6,0l0.1-48.9L378.1,549.4z"
		/>
	<path d="M451.7,573.6c0,16.8-9.2,25.7-20.3,25.7c-11.5,0-19.5-10.1-19.5-24.9c0-15.5,8.7-25.7,20.3-25.6
		C444.1,548.8,451.8,559.1,451.7,573.6z M418,574.3c0,10.5,5,19.8,13.8,19.9c8.9,0,14-9.2,14-20.3c0-9.7-4.5-19.9-13.8-19.9
		C422.7,553.9,418,563.5,418,574.3z"/>
	<path d="M464.7,549.7l-0.1,29c0,11,4.3,15.6,10.1,15.6c6.5,0,10.6-4.8,10.6-15.6l0.1-29l5.7,0l-0.1,28.5c0,15-7.1,21.2-16.5,21.1
		c-8.9,0-15.6-5.8-15.6-21l0.1-28.8L464.7,549.7z"/>
	<path d="M500,591c2.5,1.8,6.2,3.2,10.1,3.2c5.7,0,9.1-3.4,9.1-8.3c0-4.6-2.3-7.2-8.2-9.8c-7.1-2.8-11.5-7-11.5-13.9
		c0-7.6,5.7-13.3,14.1-13.2c4.5,0,7.7,1.2,9.6,2.4l-1.6,5.2c-1.4-0.9-4.3-2.3-8.3-2.3c-5.9,0-8.2,4-8.2,7.3c0,4.6,2.6,6.8,8.6,9.5
		c7.4,3.2,11.1,7.2,11.1,14.4c0,7.6-5,14.1-15.3,14c-4.2,0-8.8-1.4-11.1-3.2L500,591z"/>
	<path d="M555.2,575.9l-16.9-0.1l0,17.6l18.9,0.1l0,5.3l-24.5-0.1l0.1-48.9l23.5,0.1l0,5.3l-17.9-0.1l0,15.5l16.9,0.1V575.9z"/>
</g>
<g>
	<path class="st7" d="M191,685.3l-32.7,0l0,39.9l36.4,0.1l0,12l-47.3-0.1l0.1-110.6l45.4,0.1l0,12l-34.5,0l0,34.9l32.7,0L191,685.3z
		"/>
</g>
<g>
	<path class="st9" d="M66.7,679.3l0.2,107.3l-10.8,0l-0.2-107.3L66.7,679.3z"/>
</g>
<g>
	<path class="st7" d="M221,702.1l-8.2,34.7l-10.5,0L229,626.5l12.3,0l27.1,110.3l-10.9,0l-8.5-34.7L221,702.1z M246.9,691l-7.8-31.8
		c-1.8-7.2-2.9-13.8-4.1-20.1h-0.2c-1.2,6.5-2.4,13.3-4,20l-7.7,31.9L246.9,691z"/>
</g>
<g>
	<path class="st9" d="M84.3,628.6c5.4-1.3,11.8-2.3,18.9-2.3c12.8,0,21.9,4.6,27.9,13.5c6.1,8.9,9.7,21.4,9.8,39
		c0,17.8-3.4,32.3-9.9,42.3c-6.4,10.2-17,15.7-30.4,15.7c-6.3,0-11.6-0.5-16.1-1.3L84.3,628.6z M93.3,724.8c2.3,0.6,5.5,0.8,9,0.8
		c19,0,29.3-16.8,29.3-46.2c0.1-25.7-9.1-41.9-27.9-41.9c-4.6,0-8.1,0.7-10.4,1.5L93.3,724.8z"/>
</g>
<g>
	<g>
		<rect x="55.9" y="676.2" class="st9" width="11" height="0.9"/>
	</g>
	<g>
		<rect x="53.8" y="671.4" class="st9" width="14.7" height="0.9"/>
	</g>
	<g>
		<rect x="51.2" y="666.9" class="st9" width="19.7" height="0.9"/>
	</g>
	<g>
		<polygon class="st9" points="51.2,667.7 51.9,667.3 56.7,676.7 56,677.1 		"/>
	</g>
	<g>
		<polygon class="st9" points="66.1,676.7 70.2,667.4 71,667.7 66.9,677.1 		"/>
	</g>
	<g>
		<path class="st9" d="M60.9,667.8c-8.9,0-16.1-9.3-16.1-20.6c0-11.4,7.2-20.6,16.1-20.6c8.9,0,16.1,9.3,16.1,20.6
			C77,658.5,69.8,667.8,60.9,667.8z M60.9,627.4c-8.4,0-15.3,8.9-15.3,19.8c0,10.9,6.8,19.8,15.3,19.8s15.3-8.9,15.3-19.8
			C76.2,636.3,69.3,627.4,60.9,627.4z"/>
	</g>
	<g>
		<polygon class="st9" points="46.9,657.2 47.7,656.9 51.9,667.4 51.2,667.7 		"/>
	</g>
	<g>
		<polygon class="st9" points="70.2,667.4 74.5,656.2 75.3,656.5 71,667.7 		"/>
	</g>
	<g>
		<path class="st10" d="M58.4,665"/>
	</g>
	<g>
		<path class="st9" d="M58.4,666.8c-0.7-3.8-0.9-7.5-0.6-11c-0.7-0.1-1.3-0.3-1.9-0.5c-0.9-0.3-2.5-1.1-2.5-2.1
			c0-0.6,0.4-1.2,1.3-1.8c1-0.6,2.6-1,3.4-0.4c0.5,0.4,0.7,1.1,0.8,1.9c0.2-0.5,0.4-0.9,0.8-1.2c0.8-0.9,2.8-2.3,3.9-1.6
			c0.4,0.3,0.6,0.7,0.7,1.3c0.1,0.9-0.1,2.2-0.9,3.1c-0.9,1.1-2.5,1.4-4.2,1.4c0.1,3,1.5,7,3.1,10.3l-0.7,0.4
			c-0.8-1.6-2.6-5.6-3.1-9.2c-0.1,2.9,0.1,6,0.7,9.1L58.4,666.8z M59.3,655.1c1.5,0.1,2.8-0.2,3.5-1.1c0.6-0.7,0.8-1.7,0.7-2.4
			c0-0.4-0.2-0.6-0.3-0.7c-0.5-0.4-2.1,0.5-2.9,1.4C59.7,653,59.3,654,59.3,655.1z M57,651.6c-0.5,0-1.3,0.2-1.9,0.6
			c-0.6,0.4-0.9,0.8-0.9,0.9c0,0.2,0.5,0.8,2,1.3c0.5,0.2,1.1,0.4,1.7,0.5c0.2-1.3,0.3-2.7-0.2-3.1C57.5,651.7,57.3,651.6,57,651.6z
			"/>
	</g>
</g>
<g>
	<path d="M90.1,737.8l0,20.5l21.1,0.1l0-20.5l5.7,0l-0.1,48.9l-5.7,0l0.1-22.9L90,763.8L90,786.8l-5.6,0l0.1-48.9L90.1,737.8z"/>
	<path d="M163.7,762c0,16.8-9.2,25.7-20.3,25.7c-11.5,0-19.5-10.1-19.5-24.9c0-15.5,8.7-25.7,20.3-25.6
		C156.1,737.2,163.8,747.5,163.7,762z M130,762.7c0,10.5,5,19.8,13.8,19.9c8.9,0,14-9.2,14-20.3c0-9.7-4.5-19.9-13.8-19.9
		C134.7,742.3,130,752,130,762.7z"/>
	<path d="M176.7,738.1l-0.1,29c0,11,4.3,15.6,10.1,15.6c6.5,0,10.6-4.8,10.6-15.6l0.1-29l5.7,0l-0.1,28.5c0,15-7.1,21.2-16.5,21.1
		c-8.9,0-15.6-5.8-15.6-21l0.1-28.8L176.7,738.1z"/>
	<path d="M212,779.4c2.5,1.8,6.2,3.2,10.1,3.2c5.7,0,9.1-3.4,9.1-8.3c0-4.6-2.3-7.2-8.2-9.8c-7.1-2.8-11.5-7-11.5-13.9
		c0-7.6,5.7-13.3,14.1-13.2c4.5,0,7.7,1.2,9.6,2.4l-1.6,5.2c-1.4-0.9-4.3-2.3-8.3-2.3c-5.9,0-8.2,4-8.2,7.3c0,4.6,2.6,6.8,8.6,9.5
		c7.4,3.2,11.1,7.2,11.1,14.4c0,7.6-5,14.1-15.3,14c-4.2,0-8.8-1.4-11.1-3.2L212,779.4z"/>
	<path d="M267.2,764.4l-16.9-0.1l0,17.6l18.9,0.1l0,5.3l-24.5-0.1l0.1-48.9l23.5,0.1l0,5.3l-17.9-0.1l0,15.5l16.9,0.1L267.2,764.4z"
		/>
</g>
<g>
	<path class="st11" d="M477.4,696.7l-32.7,0l0,39.9l36.4,0.1l0,12l-47.3-0.1L434,638l45.4,0.1l0,12l-34.5,0l0,34.9l32.7,0
		L477.4,696.7z"/>
</g>
<g>
	<path class="st11" d="M353.2,690.8l0.2,107.3l-10.8,0l-0.2-107.3L353.2,690.8z"/>
</g>
<g>
	<path class="st11" d="M507.5,713.6l-8.2,34.7l-10.5,0L515.5,638l12.3,0l27.1,110.3l-10.9,0l-8.5-34.7L507.5,713.6z M533.4,702.4
		l-7.8-31.8c-1.8-7.2-2.9-13.8-4.1-20.1h-0.2c-1.2,6.5-2.4,13.3-4,20l-7.7,31.9L533.4,702.4z"/>
</g>
<g>
	<path class="st11" d="M370.8,640.1c5.4-1.3,11.8-2.3,18.9-2.3c12.8,0,21.9,4.6,27.9,13.5c6.1,8.9,9.7,21.4,9.8,39
		c0,17.8-3.4,32.3-9.9,42.3c-6.4,10.2-17,15.7-30.4,15.7c-6.3,0-11.6-0.5-16.1-1.3L370.8,640.1z M379.8,736.3c2.3,0.6,5.5,0.8,9,0.8
		c19,0,29.3-16.8,29.3-46.2c0.1-25.7-9.1-41.9-27.9-41.9c-4.6,0-8.1,0.7-10.4,1.5L379.8,736.3z"/>
</g>
<g>
	<g>
		<rect x="342.3" y="687.7" class="st11" width="11" height="0.9"/>
	</g>
	<g>
		<rect x="340.3" y="682.9" class="st11" width="14.7" height="0.9"/>
	</g>
	<g>
		<rect x="337.7" y="678.4" class="st11" width="19.7" height="0.9"/>
	</g>
	<g>
		<polygon class="st11" points="337.7,679.2 338.4,678.8 343.2,688.2 342.5,688.6 		"/>
	</g>
	<g>
		<polygon class="st11" points="352.6,688.2 356.7,678.9 357.5,679.2 353.3,688.6 		"/>
	</g>
	<g>
		<path class="st11" d="M347.4,679.3c-8.9,0-16.1-9.3-16.1-20.6s7.2-20.6,16.1-20.6c8.9,0,16.1,9.3,16.1,20.6
			C363.5,670,356.3,679.3,347.4,679.3z M347.4,638.9c-8.4,0-15.3,8.9-15.3,19.8s6.8,19.8,15.3,19.8s15.3-8.9,15.3-19.8
			S355.8,638.9,347.4,638.9z"/>
	</g>
	<g>
		<polygon class="st11" points="333.4,668.7 334.1,668.4 338.4,678.8 337.6,679.2 		"/>
	</g>
	<g>
		<polygon class="st11" points="356.7,678.9 361,667.7 361.7,668 357.5,679.2 		"/>
	</g>
	<g>
		<path class="st12" d="M344.8,676.5"/>
	</g>
	<g>
		<path class="st11" d="M344.9,678.3c-0.7-3.8-0.9-7.5-0.6-11c-0.7-0.1-1.3-0.3-1.9-0.5c-0.9-0.3-2.5-1.1-2.5-2.1
			c0-0.6,0.4-1.2,1.3-1.8c1-0.6,2.6-1,3.4-0.4c0.5,0.4,0.7,1.1,0.8,1.9c0.2-0.5,0.4-0.9,0.8-1.2c0.8-0.9,2.8-2.3,3.9-1.6
			c0.4,0.3,0.6,0.7,0.7,1.3c0.1,0.9-0.1,2.2-0.9,3.1c-0.9,1.1-2.5,1.4-4.2,1.4c0.1,3,1.5,7,3.1,10.3l-0.7,0.4
			c-0.8-1.6-2.6-5.6-3.1-9.2c-0.1,2.9,0.1,6,0.7,9.1L344.9,678.3z M345.7,666.6c1.5,0.1,2.8-0.2,3.5-1.1c0.6-0.7,0.8-1.7,0.7-2.4
			c0-0.4-0.2-0.6-0.3-0.7c-0.5-0.4-2.1,0.5-2.9,1.4C346.1,664.5,345.8,665.5,345.7,666.6z M343.5,663.1c-0.5,0-1.3,0.2-1.9,0.6
			c-0.6,0.4-0.9,0.8-0.9,0.9c0,0.2,0.5,0.8,2,1.3c0.5,0.2,1.1,0.4,1.7,0.5c0.2-1.3,0.3-2.7-0.2-3.1
			C344,663.2,343.8,663.1,343.5,663.1z"/>
	</g>
</g>
<g>
	<path d="M376.6,749.3l0,20.5l21.1,0.1l0-20.5l5.7,0l-0.1,48.9l-5.7,0l0.1-22.9l-21.1-0.1l-0.1,22.9l-5.6,0l0.1-48.9L376.6,749.3z"
		/>
	<path d="M450.2,773.5c0,16.8-9.2,25.7-20.3,25.7c-11.5,0-19.5-10.1-19.5-24.9c0-15.5,8.7-25.7,20.3-25.6
		C442.6,748.7,450.2,759,450.2,773.5z M416.4,774.2c0,10.5,5,19.8,13.8,19.9c8.9,0,14-9.2,14-20.3c0-9.7-4.5-19.9-13.8-19.9
		C421.1,753.8,416.5,763.5,416.4,774.2z"/>
	<path d="M463.2,749.6l-0.1,29c0,11,4.3,15.6,10.1,15.6c6.5,0,10.6-4.8,10.6-15.6l0.1-29l5.7,0l-0.1,28.5c0,15-7.1,21.2-16.5,21.1
		c-8.9,0-15.6-5.8-15.6-21l0.1-28.8L463.2,749.6z"/>
	<path d="M498.5,790.9c2.5,1.8,6.2,3.2,10.1,3.2c5.7,0,9.1-3.4,9.1-8.3c0-4.6-2.3-7.2-8.2-9.8c-7.1-2.8-11.5-7-11.5-13.9
		c0-7.6,5.7-13.3,14.1-13.2c4.5,0,7.7,1.2,9.6,2.4l-1.6,5.2c-1.4-0.9-4.3-2.3-8.3-2.3c-5.9,0-8.2,4-8.2,7.3c0,4.6,2.6,6.8,8.6,9.5
		c7.4,3.2,11.1,7.2,11.1,14.4c0,7.6-5,14.1-15.3,14c-4.2,0-8.8-1.4-11.1-3.2L498.5,790.9z"/>
	<path d="M553.7,775.8l-16.9-0.1l0,17.6l18.9,0.1l0,5.3l-24.5-0.1l0.1-48.9l23.5,0.1l0,5.3l-17.9-0.1l0,15.5l16.9,0.1V775.8z"/>
</g>
</svg>
